<?xml version="1.0" encoding="utf-8"?>
<!-- Generator: Adobe Illustrator 16.0.0, SVG Export Plug-In . SVG Version: 6.00 Build 0)  -->
<!DOCTYPE svg PUBLIC "-//W3C//DTD SVG 1.1//EN" "http://www.w3.org/Graphics/SVG/1.1/DTD/svg11.dtd">
<svg version="1.1" id="Layer_1" xmlns="http://www.w3.org/2000/svg" xmlns:xlink="http://www.w3.org/1999/xlink" x="0px" y="0px"
	 width="75.671px" height="77.417px" viewBox="0 0 75.671 77.417" enable-background="new 0 0 75.671 77.417" xml:space="preserve">
<g>
	<ellipse fill="#8067AC" cx="37.19" cy="39.843" rx="26.708" ry="25.978"/>
	<path fill="#FFFFFF" d="M38.313,20.429l16.661,0.036c-2.776-2.262-1.646-1.349-3.065-2.299l-29.804,0.039
		c-2.673,2.236-0.512,0.258-2.673,2.236l8.746-0.012v35.294l-12.112-0.028c0.487,0.715-0.833-0.542,1.985,2.265h22.254
		c-0.331-0.334-1.571-1.467-1.897-1.84c-1.945-2.224-3.447-5.67-3.447-9.816c0-4.139,1.104-7.715,3.309-10.737L38.313,20.429z"/>
	<g>
		<path fill="#FFFFFF" d="M38.669,36.115c2.365-2.846,5.237-4.301,8.611-4.364c2.23-0.03,4.317,0.579,6.261,1.83
			c1.944,1.251,3.473,2.94,4.588,5.067l1.221-0.751c-1.33-2.033-3.064-3.636-5.208-4.809c-2.144-1.173-4.438-1.76-6.884-1.76
			c-3.925,0-7.253,1.485-9.986,4.458c-0.046,0.05-0.088,0.102-0.134,0.152l-0.007,2.397C37.57,37.56,38.083,36.82,38.669,36.115z"/>
		<path fill="#FFFFFF" d="M53.806,58.166c-1.853,1.298-3.895,1.947-6.125,1.947c-2.816,0-5.309-0.928-7.476-2.778h-1.596
			c2.605,2.133,5.637,3.2,9.095,3.2c2.447,0,4.696-0.61,6.749-1.83c0.684-0.406,1.32-0.865,1.917-1.37h-1.512
			C54.521,57.627,54.174,57.908,53.806,58.166z"/>
		<path fill="#FFFFFF" d="M38.913,56.12c-2.471-2.751-3.707-6.083-3.707-9.993c0-3.012,0.67-5.696,2.009-8.053l0.008-2.397
			c-2.641,2.94-3.965,6.423-3.965,10.451c0,4.035,1.426,7.467,4.279,10.298c0.377,0.374,0.765,0.722,1.162,1.046h1.595
			C39.819,57.064,39.359,56.616,38.913,56.12z"/>
	</g>
	<path fill="#FFFFFF" d="M56.92,57.637c-0.838,0-26.826,0-26.826,0v-2.235l28.877-0.029C58.972,55.373,57.727,56.859,56.92,57.637z"
		/>
</g>
</svg>
